<svg width="512" height="512" viewBox="0 0 512 512" fill="none" xmlns="http://www.w3.org/2000/svg">
<circle cx="256" cy="256" r="256" fill="#FF985E"/>
<path d="M305.443 285.73C304.142 284.418 267.683 249.975 265.977 249.265C264.272 248.554 266.44 252.873 264.592 252.873C262.745 252.873 253.669 250.173 251.963 250.883C250.258 251.594 265.893 262.386 264.592 263.698C261.986 266.32 244.145 261.894 247.152 265.578C251.508 270.915 282.963 302.841 285.57 305.463L372.058 391.951C373.359 393.262 374.907 394.304 376.612 395.014C378.317 395.725 380.147 396.09 381.994 396.09C383.842 396.09 385.671 395.725 387.376 395.014C389.082 394.304 390.629 393.262 391.93 391.951C394.537 389.329 396 385.782 396 382.084C396 378.387 394.537 374.84 391.93 372.218L305.443 285.73ZM322.656 250.883C333.787 250.873 344.459 246.444 352.325 238.568L391.93 198.962C394.537 196.34 396 192.793 396 189.096C396 185.399 394.537 181.852 391.93 179.23C390.629 177.918 389.082 176.877 387.376 176.166C385.671 175.456 383.842 175.09 381.994 175.09C380.147 175.09 378.317 175.456 376.612 176.166C374.907 176.877 373.359 177.918 372.058 179.23L332.452 218.835C329.83 221.442 326.283 222.905 322.586 222.905C318.889 222.905 315.342 221.442 312.72 218.835L362.261 169.293C364.868 166.671 366.331 163.124 366.331 159.427C366.331 155.73 364.868 152.183 362.261 149.561C360.96 148.249 359.413 147.208 357.707 146.497C356.002 145.787 354.173 145.421 352.325 145.421C350.478 145.421 348.648 145.787 346.943 146.497C345.238 147.208 343.69 148.249 342.389 149.561L292.987 198.962C290.381 196.34 288.918 192.793 288.918 189.096C288.918 185.399 290.381 181.852 292.987 179.23L332.452 139.624C333.917 138.37 335.107 136.826 335.947 135.09C336.787 133.353 337.259 131.462 337.334 129.535C337.408 127.608 337.084 125.686 336.38 123.89C335.676 122.094 334.609 120.463 333.245 119.099C331.881 117.735 330.25 116.668 328.454 115.964C326.659 115.261 324.737 114.936 322.809 115.01C320.882 115.085 318.991 115.557 317.255 116.397C315.518 117.237 313.974 118.427 312.72 119.892L273.115 159.497C265.252 167.369 260.836 178.04 260.836 189.166C260.836 200.292 265.252 210.963 273.115 218.835L256.041 236.189L234.209 214.637C240.405 203.454 242.748 190.543 240.877 177.896C239.005 165.25 233.022 153.571 223.853 144.663C203.7 124.51 151.5 101.978 126.869 127.029C102.238 152.08 124.49 203.721 144.082 224.013C155.024 234.994 169.735 241.399 185.227 241.926H187.186C196.649 241.792 205.911 239.187 214.056 234.369L236.028 255.921L120.151 371.798C118.856 373.103 117.83 374.65 117.132 376.352C116.434 378.053 116.079 379.875 116.085 381.714C116.092 383.553 116.46 385.372 117.17 387.069C117.88 388.765 118.916 390.305 120.221 391.601C121.526 392.897 123.073 393.922 124.775 394.62C126.476 395.318 128.298 395.674 130.137 395.667C131.976 395.661 133.796 395.292 135.492 394.582C137.188 393.873 138.728 392.836 140.024 391.531L265.977 265.578L292.847 238.708C296.77 242.599 301.423 245.677 306.538 247.767C311.653 249.856 317.131 250.915 322.656 250.883ZM206.079 206.1C203.458 208.706 200.329 210.747 196.886 212.095C193.444 213.443 189.761 214.07 186.067 213.937C177.886 213.585 170.16 210.073 164.515 204.141C149.4 189.026 138.764 154.739 146.741 146.762C149.391 144.763 152.665 143.771 155.978 143.963C173.84 145.386 190.746 152.611 204.12 164.535C209.834 169.821 213.241 177.141 213.608 184.916C213.974 192.692 211.271 200.3 206.079 206.1Z" fill="white"/>
</svg>
