<svg width="512" height="512" viewBox="0 0 512 512" fill="none" xmlns="http://www.w3.org/2000/svg">
<path d="M453.464 256C453.464 250.112 453.201 244.48 452.674 238.592L501.645 202.496C512.176 194.816 515.073 180.48 508.49 169.216L459.256 86.528C456.099 81.1055 450.993 77.0084 444.919 75.0239C438.844 73.0393 432.229 73.3071 426.345 75.776L369.739 99.072C359.998 92.416 349.73 86.528 338.935 81.664L331.3 22.528C329.72 9.728 318.399 0 305.234 0H207.029C193.601 0 182.28 9.728 180.7 22.528L173.065 81.664C162.271 86.528 152.002 92.416 142.261 99.072L85.6545 75.776C73.5434 70.656 59.326 75.264 52.7439 86.528L3.50954 169.472C-3.07259 180.736 -0.176456 194.816 10.355 202.752L59.326 238.848C58.2346 250.344 58.2346 261.912 59.326 273.408L10.355 309.504C-0.176456 317.184 -3.07259 331.52 3.50954 342.784L52.7439 425.472C59.326 436.736 73.5434 441.344 85.6545 436.224L142.261 412.928C152.002 419.584 162.271 425.472 173.065 430.336L180.7 489.472C182.28 502.272 193.601 512 206.766 512H304.971C318.135 512 329.457 502.272 331.036 489.472L338.672 430.336C349.466 425.472 359.734 419.584 369.476 412.928L426.082 436.224C438.193 441.344 452.411 436.736 458.993 425.472L508.227 342.784C514.809 331.52 511.913 317.44 501.382 309.504L452.411 273.408C453.201 267.52 453.464 261.888 453.464 256ZM257.053 345.6C206.239 345.6 164.903 305.408 164.903 256C164.903 206.592 206.239 166.4 257.053 166.4C307.867 166.4 349.203 206.592 349.203 256C349.203 305.408 307.867 345.6 257.053 345.6Z" fill="white"/>
</svg>
