<svg width="512" height="512" viewBox="0 0 512 512" fill="none" xmlns="http://www.w3.org/2000/svg">
<circle cx="256" cy="256" r="256" fill="#11D900"/>
<path d="M238.736 247.219C238.197 221.71 232.792 196.538 222.809 173.057C159.101 202.806 112.302 258.936 96.305 325.17C105.667 346.62 119.243 365.971 136.228 382.072C152.38 325.908 188.941 277.81 238.736 247.219ZM212.846 152.92C202.175 134.328 188.576 117.578 172.572 103.315C108.724 138.256 70.9762 210.594 84.8685 287.282C108.303 228.977 153.909 180.635 212.846 152.92ZM344.471 268.759C350.505 198.737 325.317 130.187 276.062 83.2484C265.749 82.0556 239.858 79.3894 206.671 89.2122C247.276 131.288 270.676 187.028 272.274 245.479C294.634 257.775 319.141 265.677 344.471 268.759ZM256.978 275.425C235.155 288.674 216.057 305.962 200.708 326.363C258.241 366.566 330.158 379.055 395.41 359.901C409.445 341.095 419.518 319.637 425.018 296.824C406.464 301.552 387.403 304.002 368.257 304.121C329.948 304.051 291.849 294.228 256.978 275.425ZM188.008 345.377C177.343 363.62 169.976 383.546 165.486 404.454C196.61 423.557 232.971 432.343 269.384 429.559C305.796 426.774 340.399 412.562 368.257 388.948C289.043 400.245 225.615 371.548 188.008 345.377ZM314.512 92.3695C353.312 141.764 372.396 205.472 366.853 270.303C388.228 270.348 409.474 266.985 429.79 260.34C429.79 258.936 430 257.533 430 256.13C430 180.494 381.798 116.435 314.512 92.3695Z" fill="white"/>
</svg>
