<svg width="512" height="512" viewBox="0 0 512 512" fill="none" xmlns="http://www.w3.org/2000/svg">
<path d="M256 244C256 385.385 256 371 256 512C114.615 512 0 397.385 0 256C0 114.615 114.615 0 256 0C256 123 256 102.615 256 244Z" fill="#0094FF"/>
<path d="M512 256C512 397.385 397.385 512 256 512C256 361 256 407.385 256 266C256 124.615 256 191.5 256 0C397.385 0 512 114.615 512 256Z" fill="#FF00E6"/>
<path d="M159.376 95C180.391 95 197.428 112.036 197.428 133.052C197.428 154.068 180.391 171.104 159.376 171.104C138.36 171.104 121.324 154.068 121.324 133.052C121.348 112.046 138.369 95.0245 159.373 95H159.375H159.376ZM159.376 149.646C168.54 149.646 175.97 142.217 175.97 133.052C175.97 123.887 168.541 116.458 159.376 116.458C150.212 116.458 142.782 123.887 142.782 133.052C142.79 142.213 150.215 149.638 159.375 149.646H159.376H159.376ZM214.022 416.868H175.97V286.118H203.293V215.021C203.284 205.86 195.86 198.435 186.699 198.427H132.052L131.909 198.426C122.824 198.426 115.458 205.792 115.458 214.877V214.969V214.964V286.117H142.781V416.868H104.729V395.41H121.323V307.576H94V215.021V214.877C94 193.941 110.972 176.969 131.909 176.969C131.979 176.969 132.05 176.969 132.12 176.969H186.698C207.704 176.994 224.726 194.015 224.75 215.019V307.576H197.427V395.41H214.021L214.022 416.868ZM350.494 95C371.51 95 388.546 112.036 388.546 133.052C388.546 154.068 371.51 171.104 350.494 171.104C329.478 171.104 312.442 154.068 312.442 133.052C312.466 112.046 329.487 95.0245 350.491 95H350.494ZM350.494 149.646C359.659 149.646 367.088 142.217 367.088 133.052C367.088 123.887 359.658 116.458 350.493 116.458C341.329 116.458 333.899 123.887 333.899 133.052C333.908 142.213 341.332 149.638 350.493 149.646H350.494ZM405.14 416.868H367.088V327.174H392.266L372.124 216.509C370.22 206.15 361.262 198.405 350.494 198.405C339.726 198.405 330.767 206.15 328.885 216.374L328.864 216.509L308.708 327.174H333.899V416.868H295.847V395.41H312.441V348.632H282.988L307.75 212.732C311.53 192.28 329.227 176.993 350.494 176.993C371.761 176.993 389.458 192.28 393.197 212.464L393.238 212.732L418 348.632H388.546V395.409H405.14V416.868Z" fill="white"/>
</svg>
